HIERARCHY
ROOT Hips
{
	OFFSET 0.00000 0.00000 0.00000
	CHANNELS 6 Xposition Yposition Zposition Zrotation Yrotation Xrotation 
	JOINT LHipJoint
	{
		OFFSET 0 0 0
		CHANNELS 3 Zrotation Yrotation Xrotation
		JOINT LeftUpLeg
		{
			OFFSET 1.64549 -1.70879 0.84566
			CHANNELS 3 Zrotation Yrotation Xrotation
			JOINT LeftLeg
			{
				OFFSET 2.24963 -6.18082 0.00000
				CHANNELS 3 Zrotation Yrotation Xrotation
				JOINT LeftFoot
				{
					OFFSET 2.71775 -7.46697 0.00000
					CHANNELS 3 Zrotation Yrotation Xrotation
					JOINT LeftToeBase
					{
						OFFSET 0.18768 -0.51564 2.24737
						CHANNELS 3 Zrotation Yrotation Xrotation
						End Site
						{
							OFFSET 0.00000 -0.00000 1.15935
						}
					}
				}
			}
		}
	}
	JOINT RHipJoint
	{
		OFFSET 0 0 0
		CHANNELS 3 Zrotation Yrotation Xrotation
		JOINT RightUpLeg
		{
			OFFSET -1.58830 -1.70879 0.84566
			CHANNELS 3 Zrotation Yrotation Xrotation
			JOINT RightLeg
			{
				OFFSET -2.25006 -6.18201 0.00000
				CHANNELS 3 Zrotation Yrotation Xrotation
				JOINT RightFoot
				{
					OFFSET -2.72829 -7.49593 0.00000
					CHANNELS 3 Zrotation Yrotation Xrotation
					JOINT RightToeBase
					{
						OFFSET -0.21541 -0.59185 2.10643
						CHANNELS 3 Zrotation Yrotation Xrotation
						End Site
						{
							OFFSET -0.00000 -0.00000 1.09838
						}
					}
				}
			}
		}
	}
	JOINT LowerBack
	{
		OFFSET 0 0 0
		CHANNELS 3 Zrotation Yrotation Xrotation
		JOINT Spine
		{
			OFFSET 0.03142 2.10496 -0.11038
			CHANNELS 3 Zrotation Yrotation Xrotation
			JOINT Spine1
			{
				OFFSET -0.01863 2.10897 -0.06956
				CHANNELS 3 Zrotation Yrotation Xrotation
				JOINT Neck
				{
					OFFSET 0 0 0
					CHANNELS 3 Zrotation Yrotation Xrotation
					JOINT Neck1
					{
						OFFSET -0.02267 1.73238 0.00451
						CHANNELS 3 Zrotation Yrotation Xrotation
						JOINT Head
						{
							OFFSET -0.05808 1.54724 -0.61749
							CHANNELS 3 Zrotation Yrotation Xrotation
							End Site
							{
								OFFSET -0.01396 1.71468 -0.21082
							}
						}
					}
				}
				JOINT LeftShoulder
				{
					OFFSET 0 0 0
					CHANNELS 3 Zrotation Yrotation Xrotation
					JOINT LeftArm
					{
						OFFSET 3.44898 0.50298 0.21920
						CHANNELS 3 Zrotation Yrotation Xrotation
						JOINT LeftForeArm
						{
							OFFSET 5.41917 -0.00000 -0.00000
							CHANNELS 3 Zrotation Yrotation Xrotation
							JOINT LeftHand
							{
								OFFSET 2.44373 -0.00000 0.00000
								CHANNELS 3 Zrotation Yrotation Xrotation
								JOINT LeftFingerBase
								{
									OFFSET 0 0 0
									CHANNELS 3 Zrotation Yrotation Xrotation
									JOINT LeftHandIndex1
									{
										OFFSET 0.72750 -0.00000 0.00000
										CHANNELS 3 Zrotation Yrotation Xrotation
										End Site
										{
											OFFSET 0.58653 -0.00000 0.00000
										}
									}
								}
								JOINT LThumb
								{
									OFFSET 0 0 0
									CHANNELS 3 Zrotation Yrotation Xrotation
									End Site
									{
										OFFSET 0.59549 -0.00000 0.59549
									}
								}
							}
						}
					}
				}
				JOINT RightShoulder
				{
					OFFSET 0 0 0
					CHANNELS 3 Zrotation Yrotation Xrotation
					JOINT RightArm
					{
						OFFSET -3.23015 0.55830 0.31051
						CHANNELS 3 Zrotation Yrotation Xrotation
						JOINT RightForeArm
						{
							OFFSET -5.58976 -0.00010 0.00014
							CHANNELS 3 Zrotation Yrotation Xrotation
							JOINT RightHand
							{
								OFFSET -2.48060 -0.00000 0.00000
								CHANNELS 3 Zrotation Yrotation Xrotation
								JOINT RightFingerBase
								{
									OFFSET 0 0 0
									CHANNELS 3 Zrotation Yrotation Xrotation
									JOINT RightHandIndex1
									{
										OFFSET -0.81601 -0.00000 0.00000
										CHANNELS 3 Zrotation Yrotation Xrotation
										End Site
										{
											OFFSET -0.65789 -0.00000 0.00000
										}
									}
								}
								JOINT RThumb
								{
									OFFSET 0 0 0
									CHANNELS 3 Zrotation Yrotation Xrotation
									End Site
									{
										OFFSET -0.66793 -0.00000 0.66793
									}
								}
							}
						}
					}
				}
			}
		}
	}
}
MOTION
Frames: 6
Frame Time: 0.0425532
0.00 0.00 0.00 0 0 0 0 0 0 -21 0 0 0 0 0 0 0 0 0 0 0 0 0 0 21 0 0 0 0 0 0 0 0 0 0 0 0 0 0 0 0 0 0 0 0 0 0 -16 0 0 21 0 0 11 0 0 0 -8 0 0 0 0 0 0 0 0 0 0 0 0 0 0 0 0 0 0 0 0 8 0 0 0 0 0 0 0 0 0 0 0 0 0 0 0 0 0
0.00 0.00 0.00 -178.9430 -20.2376 -155.6440 0.0000 0.0000 0.0000 -24.2683 -10.1979 -41.6954 2.6694 10.1396 29.4301 2.9553 11.0785 -37.7622 0.9478 6.2002 17.3664 0.0000 0.0000 0.0000 26.8302 1.3414 -7.0101 -0.8359 -5.8323 16.2986 -0.1714 -24.1116 -34.9210 -0.4264 -4.1906 11.6135 0.0244 1.7420 -10.5713 0.1765 1.5807 -7.4862 0.3166 0.4754 -1.8756 -0.4756 2.5895 -13.0792 1.1271 -1.4895 42.7529 -0.1758 -2.0941 18.2232 -0.0000 0.0000 0.0000 -82.7140 14.6373 -7.2598 12.0579 -19.8915 -2.1220 -0.0000 -0.0000 7.1681 19.8622 18.8674 6.6631 -7.1250 0.0000 -0.0000 -8.2625 49.7688 -0.9774 -0.0000 0.0000 0.0000 83.4854 -10.8759 -5.5911 1.2315 -2.1319 -0.0229 0.0000 0.0000 29.5322 -10.6590 5.7337 -1.0772 7.1250 -0.0000 -0.0000 11.8766 -24.1538 6.1036
0.00 0.00 0.00 -179.2600 -21.6399 -156.1700 0.0000 0.0000 0.0000 -25.1338 -10.4062 -38.1721 2.3611 9.5809 27.6299 2.8716 13.3387 -38.8007 0.2145 2.9820 8.2285 0.0000 0.0000 0.0000 28.3275 -4.6244 -11.9804 -2.3463 -9.5530 27.5410 1.0987 -21.7777 -21.1135 -0.0263 -1.0469 2.8778 -1.2576 1.1980 -11.8255 0.0208 1.0457 -6.8110 0.8465 0.2687 -0.5142 -1.2950 2.2987 -12.4487 2.8686 -3.0131 43.6399 0.4766 -2.7315 18.6917 -0.0000 -0.0000 0.0000 -83.1397 15.0284 -4.3432 14.7633 -23.8153 -3.1297 -0.0000 -0.0000 0.1617 17.9442 21.2266 6.6874 -7.1250 0.0000 -0.0000 -10.9334 51.8627 -1.8661 -0.0000 -0.0000 0.0000 84.6239 -12.0457 -6.2420 0.4203 -0.7280 -0.0027 0.0000 0.0000 28.0011 -5.9721 5.6379 -0.5888 7.1250 -0.0000 -0.0000 15.3037 -24.3092 7.9209
0.00 0.00 0.00 -178.1740 -20.5636 -161.0170 0.0000 0.0000 0.0000 -18.6169 -7.1094 -44.6031 2.7725 10.3173 30.0105 0.1668 17.9585 -26.8086 0.0918 1.9543 5.3793 0.0000 0.0000 0.0000 26.9069 18.7638 -12.3949 -0.7810 -5.6422 15.7497 -3.0280 -24.1753 -47.7418 -2.5956 -10.0096 29.0079 6.6219 2.7912 -1.1415 0.9613 3.6258 -2.7566 -2.7132 1.6359 -1.8565 -2.0644 1.0252 -15.5242 -0.3532 -1.8265 41.3023 -0.5473 -2.3533 18.0036 -0.0000 0.0000 0.0000 -87.4574 15.2741 5.9425 28.0974 -39.2057 -10.1852 -0.0000 0.0000 -0.0259 -0.6832 15.9416 -0.1876 -7.1250 0.0000 -0.0000 -25.8519 44.2377 0.5232 -0.0000 0.0000 0.0000 81.4843 -4.4449 6.6461 -7.7145 13.0890 -0.8863 0.0000 0.0000 4.7105 -5.9964 19.8498 -2.0427 7.1250 -0.0000 -0.0000 14.3640 -10.5040 11.8946
0.00 0.00 0.00 -184.0180 -25.7055 -155.8030 0.0000 0.0000 0.0000 -17.8432 1.7067 -38.0390 4.4135 12.6912 38.2231 1.6796 19.3006 -37.6508 0.3354 3.7217 10.2949 0.0000 0.0000 0.0000 21.8510 21.9738 -24.5562 -2.0995 -9.0703 26.0156 -6.0583 -20.7091 -55.5568 -4.3570 -12.6209 37.9654 2.7309 1.5743 -3.8026 0.3132 1.8713 -3.9517 -1.1640 0.8000 -1.8511 -2.1783 0.7464 -13.7655 0.2405 -2.8820 41.8319 -0.4540 -2.7993 17.8746 -0.0000 -0.0000 0.0000 -86.8686 18.8290 0.5953 20.2946 -30.9957 -5.6823 -0.0000 -0.0000 2.4362 -1.6230 18.0568 -0.5032 -7.1250 0.0000 -0.0000 -27.6019 46.0158 -0.7492 -0.0000 -0.0000 0.0000 78.4321 -3.7961 4.5541 -7.7504 13.1475 -0.8945 0.0000 0.0000 4.3869 -9.6806 21.2616 -3.5397 7.1250 -0.0000 -0.0000 12.0278 -8.8156 10.2776
0.00 0.00 0.00 -183.3720 -35.8472 -152.4640 0.0000 0.0000 0.0000 -23.8610 11.5518 -13.0631 3.4503 11.3906 33.6088 -9.4419 46.1235 -16.7630 4.2501 12.4860 37.4738 0.0000 0.0000 0.0000 25.2017 15.5536 -29.5183 -1.8240 -8.4895 24.2109 -6.4382 -18.5765 -55.6115 -4.8311 -13.1911 40.0880 5.0953 -0.2662 -14.8688 2.9608 -1.9075 -7.1925 -0.0642 -1.3794 0.6795 -2.7735 1.7209 -12.8443 -0.3892 -2.0440 45.0185 -0.6780 -3.0079 19.6152 -0.0000 0.0000 0.0000 -88.1566 15.9579 7.6359 27.6581 -38.7996 -9.9087 -0.0000 -0.0000 1.6115 -2.2657 15.5982 -0.6095 -7.1250 0.0000 -0.0000 -27.0461 43.7506 0.9046 -0.0000 0.0000 0.0000 79.7772 -12.4521 -2.2367 -4.5379 7.8031 -0.3096 0.0000 0.0000 20.2147 -6.1983 19.1018 -2.0355 7.1250 -0.0000 -0.0000 14.2534 -11.2166 11.5821
